<?xml version="1.0" encoding="UTF-8"?><svg id="Vrstva_2" xmlns="http://www.w3.org/2000/svg" viewBox="0 0 87.96 63.17"><defs><style>.cls-1{fill:#fff;}</style></defs><g id="Vrstva_1-2"><path class="cls-1" d="M87.21,6.48c-.1.31.18.5.19.53.02.06-.18,1.1-.21,1.2-.46,1.19-2.33.94-3.27,1.3-1.05.41-2.09,1.17-3.04,1.72-.24.14-.53.33-.81.33l-.09.1.19.43c-.33-.17-.58.07-.76.33-.08.12-.08.32-.1.33,0,.01-.16-.09-.28-.05-.18.05-.26.23-.39.29-.1.05-.21-.04-.26-.02-.06.03-.33.41-.73.45l-.05-.28c-.43.06-.57.36-.57.76l-.38-.1-.29.95-.67-.25c-.36.06-.33.3-.48.39-.14.1-.26-.18-.5.34-.03.07.03.17.02.18-.27.17-1.07-.04-1.14,0,.21.13.2.61.22.64.01.02.4.15.02.31-.07.03-.02-.15-.11-.19-.34-.18-.73-.13-.98-.57l-.08.43c.29.07.09.28.18.52l-.47-.09c.09.35-.07.41-.19.67l-.28-.19v.47c-.3,0-1.36-.42-.76-.71.26-.13.57.12.47-.33-.16-.04-.04.17-.15.19-.17.03-.57-.06-.7-.19v.29c-.38-.18-.29.1-.46.19-.17.09-.87,0-1.14.21-.09.07-.12.35-.22.48-.17.21-.47.4-.66.6-.1.15.41.19.1.29-.4.13-.61-.33-.76.48l-.39-.02-.09.34-.28-.1-.1.38c-.25.02-.5.03-.75.05-.15-.29-.66-.18-.93-.07-.32.14-.51.6-.66.7-.12.07-.33-.02-.48.06-.21.11-.24.16-.5.28-.48.23-.52.48-.69.59-.07.05-.41-.17-.51.21l-.27-.1c-.07.38-.95.45-1,.49-.03.03.04.18-.08.27-.35.27-.99.14-1.2.28-.07.04-.52.65-.56.66-.08.03-.48-.29-.66-.14-.08.07-.05.27-.11.32-.06.06-.23,0-.26.02-.01,0,.13.16.01.34-.02.03-.48.48-.51.5-.04.02-.63.15-.81.24-.05.02,0,.16-.07.16-.24.13.05-.37-.19-.19-.13.1-.1.28-.17.35-.04.04-.52.28-.69.41-.36.28-.36.63-1.1.48-.15.21.3.2.19.28-.02.02-.17.02-.24.09-.22.22-.01.38-.51.2-.05.47-.44.28-.47.3-.04.02-.04.21-.17.25-.12.04-.34-.03-.4.03-.02.02-.21.42-.11.46l-.42-.1c-.11.26-.08.18-.34.1l-.02.27c-.39-.02-.22.29-.46.54-.16.16-.39.17-.53.28-.2.14-.29.56-.79.45l-.05.28-.33-.09-.1.24.19.14c-.31.04-.75.08-.9.39-.06.11-.03.31-.07.36-.07.08-1.22.39-.93.87-.69-.25-.87.56-1.21.76-.17.1-.44.11-.57.22-.11.09-.56.75-.6.93l-.38-.09.1.28h-.29s.1.19.1.19c-.35.02-.71.28-.99.49-.11.08-.08.33-.34.18l.09.28c-.55-.17-.6.49-.68.56-.08.06-.32-.04-.45.03-.06.03-.5.69-.56.74-.16.15-.43.22-.56.32-.28.22-.5.59-.89.63l.18.1c-.05.4-.3.21-.45.3-.07.04-.14.39-.4.37l.09.27c-.14.08-.6.07-.65.11-.03.03,0,.17-.04.23-.19.24-.4.38-.56.59l-.17-.07c0,.34-.24.58-.58.57.18.39,0,.22-.13.39-.46.6-1.03,1.07-1.59,1.68-.07.08-.43.62-.46.65-.03.03-.36-.1-.48.19.57.29-.17.26-.19.28-.09.07-.08.24-.15.33-.44.54-.92,1.06-1.33,1.66-.28.41-1.06,1.99-1.27,2.19-.11.1-.27.04-.29.07-.03.03,0,.71-.11.88-.13.22-.62.24-.73.8-.05.25.15.41.17.55,0,.04-.15.04-.18.11-.14.34-.45.97-.53,1.26-.18.61-.18,2.03-.9,2.34-.11.05-.24-.04-.37,0-.14.05-.29.27-.43.29-.15.02-.37-.1-.56-.06-.1.03-.1.25-.22.28-.1.03-.24-.07-.36-.06-.09.01-.18.17-.29.15-.09-.01-.16-.19-.25-.23-.21-.09-.42,0-.6-.06-.11-.04-.12-.21-.23-.26-.42-.21-.92-.29-1.31-.57-.25-.65-.71-1.42-.66-2.1.05-.07.14-.13.18-.2.55-1.12.92-2.42,1.6-3.73.53-1.03,1.48-2.71,2.2-3.65.21-.27.8-.71.96-.99.13-.24-.08-.39.39-.47l-.05-.57c.4,0,.47-.97.68-1.14.09-.07.38.03.45-.17l-.1-.36.19-.06v-.14s-.19-.1-.19-.1l.02-.17c.11-.23.35-.28.5-.47.26-.34.61-1.71.84-2.19.11-.23.39-.39.55-.59l-.19-.1c-.03-.26.15-.36.37-.44l-.08-.17c.67.04.36-.85.66-1.17.12-.13.7-.38.75-.47.1-.16-.1-.42-.08-.59,0-.07.17-.06.22-.18.07-.15.14-.58.19-.63.05-.05.2.02.27-.08.04-.05.17-.89.23-.98.33-.48.64-.81.91-1.36.06-.13.25.02.09-.45l.28.09-.19-.33c.35-.13.27-.39.43-.61.09-.12.52-.51.52-.55.03-.2-.1-.47-.09-.49.02-.03.31-.09.41-.29.06-.12.03-.56.15-.82.12-.26.4-.34.3-.6h.28s0-.48,0-.48l.28.1v-.48s.29.1.29.1c-.04-.38.42-.33.21-.62.35-.32.07-.75.75-.95l-.19-.24.37-.1c-.19-.5.19-.61.37-1.02.09-.2.04-.41.08-.5.12-.27.47-.29.58-.4.03-.03.09-.72.15-.88.1-.24.55-.54.44-.91l.19.1c0-.38.11-.74.15-1.12,0-.08-.07-.21-.06-.22.03-.02.22.05.3-.06.12-.17.2-.81.3-1.02.06-.13.2-.14.23-.19.22-.41.27-.63.48-1,.15-.27.31-.55.33-.86h.27v-.3l-.17.07c-.01-.31-.38.07-.39-.29,0-.38.24-.15.31-.18.12-.04.11-.21.17-.25.1-.06.31.01.35-.03.04-.03.11-.78.15-.95.05-.23.35-.34.15-.76l.19.1-.09-.48h.28c-.04-.25-.07-.76.03-.99.1-.23.45-.45.52-.7.08-.32-.01-.95.08-1.34.04-.19.38-.4.31-.72-.1-.47-.65.21-.76.27-.26.17-1.03.44-1.19.62-.16.17-.05.31-.1.39-.34.56-1.21,1.17-1.71,1.66-.28.27-.61.55-.95.85-.21.18-.32.65-.54.79-.88.56-1.29,1.15-1.88,2.06-.19.29-.54.29-.67.42-.1.1-.14.36-.25.49-.15.18-.85.75-.89.84-.09.21-.06.48-.12.58-.13.22-.86.81-1.09,1.19-.18.29-.4.53-.48.66-.06.1-.01.26-.12.41-.12.18-.42.32-.63.32.08.64-.67.66-.81,1.24l-.28-.19v.37s-.48.11-.48.11l.1.28-.34.09c.09.39-.11.41-.2.65-.11.27-.61,1.44-.74,1.64-.07.11-.25.31-.32.46-.11.21-.31.57-.37.76-.14.41.19.77-.3.69.1.16-.11.47-.23.63-.04.06-.15.03-.15.04-.11.09.34.07.19.28l-.37.15c.27.39-.2.72-.2.76,0,.09.1.21.08.35-.04.25-.28.45-.08.74l-.43.19c.12.5-.27.9-.45,1.37-.07.18.14.38-.17.35l.19.33c-.41.22-.3.89-.44,1.28-.16.43-.58.77-.72,1.18-.13.37-.04,1.04-.46.92v.19c.21-.06.29.31.27.45-.02.19-.46.23-.08.59-.63.07-.35.62-.43.76-.09.16-.74.52-.77.57-.04.07.09.81-.26,1.02-.04.02-.22-.21-.25.28,0,.14.07.27.05.43-.03.18-.24.18-.25.25-.02.15.09.3.07.44-.04.25-.34.57-.35.6-.07.4.25.63-.32,1.15-.16.15-.46.03-.36.36.02.08.24-.01.19.14l-.19.06.1.23h-.29s.06.48.06.48l-.44.09c.05.14.23.92.19.95-.03.02-.19-.03-.26.02-.07.05-.1.36-.21.51-.12.16-.35.21-.38.25-.04.06.11.33.09.49,0,.06-.6.45-.65.61-.09.27.04.53.08.79l-.38.05c.51.64-.06.7-.1.95-.04.23.11.43.1.56,0,.05-.12.05-.15.1-.19.3-.3.25-.33.31-.08.13-.01.41-.07.57-.14.37-.59,1.06-.65,1.41-.04.21.23.29-.23.48l.19.24-.38-.09c.12.49.01.74-.19,1.17-.02.04-.27.39-.28.42-.06.23.06.6,0,.82-.03.09-.18.1-.23.17-.12.2-.28.67-.51.74-.13.04-.28-.05-.36-.03-1.22.33-1.09.38-2.39.15-.66-.12-.85.14-1.2-.61-.07-.14-.07-.29-.08-.44-.35.15-.61-.44-.63-.73-.05-.65.3-1.57.54-2.18-.22-.25-.18.34-.38.14-.09-.09.19-.29.19-.43,0-.17-.24-.24-.19-.43l.28-.05c-.35-.15-.26-.46.09-.24-.05-.3-.14-.42.09-.66h-.19s0-.14,0-.14c.49-.21.19-.32.19-.67,0-.58.07-1.2.09-1.79.55-.03.2-.8.38-1.05.02-.03.45-.2.53-.35.06-.11-.05-.23-.03-.27.02-.03.18-.04.24-.17.29-.59.47-1.75.71-2.43.34-.98.86-2.01,1.03-3.05,0-.06.31-.22.39-.4.03-.07.18-.8.17-.85-.03-.11-.23,0-.19-.15l.48-.1-.1-.38h.27c-.1-.31.18-.4.2-.45.48-1.81,1.18-3.19,1.91-4.92.05-.11.2-.03.26-.08.07-.06.55-1.09.76-1.39.08-.11.1-.34.15-.38.13-.11.4.17.16-.35l.2-.11-.1-.32c.64-.16.58-1.21.85-1.56.08-.1.2-.03.32-.19.03-.04.34-.65.41-.77.24-.43.63-1.14.7-1.49h.27c-.05-.57.44-.78.66-1.13,1.36-2.19,1.87-5.16,2.7-7.65.12-.37.53-1.04.65-1.46.09-.32.11-.92.2-1.28-.28.06-.55.03-.48.38l-.47-.29.1.98c-.38.12-.3.42-.41.57-.18.26-.57.49-.63.56-.05.06.02.24-.03.34-.02.03-.49.36-.55.47-.09.15-.06.34-.15.5-.12.22-.48.47-.5.5-.06.11.08.26.03.37-.1.22-.59.31-.69.39-.03.02-.11.57-.02.65l-.28-.09c.25.45-.24.51-.39.71-.11.14-.08.34-.18.49-.14.19-.54.26-.76.34-.06.08.05.34.04.48-.05.42-.5.45-.8.61-.07.18.17.12.19.2.09.36-.17.32-.19.39-.27.64-.74,1.12-.76,1.84h-.23s-.34.71-.34.71c-.26.28-.42.12-.59.17-.29.09-.43.45.03.36v.47c-.46-.04-.3.23-.39.4-.05.09-.14.07-.17.14-.04.1.17.43-.39.41.37.67-.26.8-.54,1.17-.09.12-.25.63-.32.77-.72,1.36-1.32,2.84-1.84,4.26-.14.37-.42.88-.51,1.2-.02.09.01.65-.05.76-.02.04-.34.25-.41.41-.07.18.05.31.02.4-.12.39-.55,1.02-.61,1.28-.07.28.03.57-.02.82-.02.09-.63.54-.28,1.05-.21.36-.37.99-.64,1.48-.15.28-.69.94-.74,1.15-.03.14.06.28.04.42-.03.18-.18.78-.31.89-.07.06-.23,0-.26.03-.08.07.09.39.07.51-.02.1-.33.47-.41.82-.06.31.18,1.07-.33.95.16.35-.01.54-.38.57.05.3.14.68,0,.97-.03.07-.42.46-.46.61-.03.09.06.48,0,.64l-.28.06c.03.36-.11.67-.24,1.01-.01.03-.13.05-.17.17-.13.38.07,1.09-.36,1.44l.19.09-.39.2c.12.4-.17.67-.25.97-.23.85-.38,1.78-.53,2.61-.06.34-.31.99-.31,1.21,0,.16.18.24.15.29,0,.01-.15-.04-.22.12-.2.44-.11.96-.68,1.31l-.1-.2-.51.1.1.48-.33-.28c-.26.45-.81.03-.91.47h-.09c.11-.36-.65-.61-.89-.48-.15.08.06.37-.25.29l-.05-.28c-.3.2-.51-.24-.78-.27-.14-.02-.55.13-.7-.03-.18-.19.29-.24.36-.31.43-.43-.5-.49-.54-.98,0-.05.15-.04.19-.11.19-.34.01-.58.06-.87.1-.61.22-1.06.41-1.69.05-.17,0-.53.05-.6.09-.13.37-.17.41-.36.03-.12-.08-.25-.06-.35.13-.7.58-2.33.84-3.03.03-.08.18-.08.19-.14.02-.14-.08-.29-.07-.37.01-.09.2-.1.26-.21.12-.22.06-.57.12-.81.33-1.3.92-2.44.93-3.72,0-.04.15-.07.21-.19.23-.5.21-.97.54-1.45l-.18-.17.48-.48-.19-.09c.32-.18.24-.46.33-.71.29-.73.48-1.22.62-1.93,0-.05.25-.15.28-.31l-.19-.14c.41-.12.47-.83.64-1.22.11-.24.1-.06.22-.53.01-.05.5-.81.53-.92.04-.15-.08-.31-.05-.42.04-.13.25-.15.32-.26.19-.29.38-1.1.55-1.45.44-.9.99-1.76,1.37-2.72.18-.46.34-.93.5-1.4l-.19-.09c.63-.43.85-1.35,1.1-2.05.24-.69.37-1.67.63-2.41.17-.49.48-1.04.61-1.58.08-.34.11-.89.05-1.23l.56-.44v-.19c-.27,0-.18-.4-.07-.5.05-.05.21.02.26-.08.23-.41.03-1.16.23-1.66.08-.19.18-.16.23-.26.12-.2.04-.4.38-.56l-.18-.7.17.07c.39-.32.11-.56.12-.96.02-.53.63-1.21.47-1.87l.46-.16c.13-.36-.17-.31-.28-.51h.38c-.36-.48.19-.68.2-.73.01-.1-.1-.26-.09-.38,0-.44.51-.88.68-1.37.14-.41-.02-.84.33-.98l.6-1.54c-.6-.73-.93-.05-1.44.37-3.02,2.54-6.42,7.16-8.66,10.55-1.55,2.34-3.47,5.33-4.65,7.84-.17.36-.21.82-.48,1.13l.27.27c-.04.26-.35.33-.45.51-.08.15-.07.37-.14.53-.16.35-.45.63-.35,1.12l.28-.29v.32c-.09.19-.34.19-.47.3-.22.2-.33,1.32-.29,1.66h-.38c-.16,1.49-.98,1.48-2.12,1.74-.16.04-.32.23-.5.22-.08,0-.99-.45-1.12-.53-.26-.19-.47-.52-.46-.85l-.38.1c.15-.29.14-.82.57-.76-.29-.17-.2-.29-.28-.43-.06-.1-.24-.17-.28-.31-.05-.2.15-.39.14-.55-.05-.57,0-.22.09-.67.03-.14-.06-.43,0-.65.12-.53.4-1.1.55-1.71.04-.16.26-.23.32-.35.07-.16.01-.35.07-.45.06-.1.37-.05.37-.45,0-.14-.1-.28-.1-.38,0-.06.16-.05.19-.12.52-1.05,1.12-2.16,1.58-3.24.17-.41.29-.34.42-.57.1-.18.11-.47.23-.7.13-.24.34-.37.46-.59.1-.2.23-.98.27-1.02.05-.05.28.07.39-.06.1-.12.33-.77.48-1.02.21-.34.81-.72.55-1.21l.28.1c-.01-.52.6-.75.79-1.05.17-.27,0-.71.54-.57-.15-.29.03-.65.24-.86.08-.08.19-.02.27-.1.41-.39.23-.71.25-.75.02-.04.63-.45.75-.4l-.09-.48.24.19.14-.19-.19-.05v-.14c.49-.18.52-.83,1.1-.95l-.05-.29.27.09c.22-.32.16-.49.11-.85h.53s.32-.8.32-.8c.34,0,.29-.4.67-.35l-.19-.38c.47.04.49-.37.66-.6.29-.36,1-1.03,1.43-1.45.18-.17,1.07-.83,1.15-.95.08-.13-.01-.24,0-.27.25-.45.71-.44.85-.92l.28.19c.07-.13.37-.8.41-.83.05-.04.19,0,.24-.04.05-.06,0-.22.03-.25.07-.07.38.05.46-.03.02-.02,0-.17.04-.23.26-.36,3.16-2.58,3.63-2.8.12-.06,1.1-.43,1.16-.44.07-.01,1.34.1,1.44.13.37.11.5.43.74.7h.18c.07-.29.2-.1.33-.15.19-.07.18-.23.47-.18.79.13,1.07,1.61,1.02,2.28-.02.22-.2.41-.22.6-.19,1.67-.61,3.92-1.28,5.48-.19.43-.09.38-.19.79-.16.68-.47,1.33-.47,2.05.43-.21.57-.82,1.04-.86l-.08-.65c.2-.03.51-.26.62-.42.16-.23.37-.51.54-.76.39-.57.66-1.3,1.15-1.75.06-.05.2,0,.25-.1.06-.12.03-.4.12-.48.05-.05.21-.03.3-.12,1.29-1.36,2.88-4.18,4.57-4.96.03-.01.47-.17.5-.17.15-.04,1.03-.21,1.11-.19.28.08.02.41.06.47.03.04.48.08.6.12.14.05.25.24.31.24.07,0,.34-.29.65-.25.14.02.82.44.88.55-.06,1.28.09,2.54-.63,3.67l.19.09c-.32.64-.38,1.34-.55,2.01-.03.13-.17.14-.18.16-.03.11-.09.67-.02.73h.47c-.16-.57,1.15-.39,1.22-1.01.02-.21-.4-.37.25-.79.12.49,1.03-.37.99-.61l-.27-.3c.21-.04.46-.48.5-.5.1-.06.28.02.35-.04.03-.02.26-.59.29-.61.12-.07.36-.02.38-.05.04-.04-.04-.26.02-.36.05-.09.75-.22.74-.35l-.15-.24c.17-.22.54-.23.71-.34.15-.1.38-.54.54-.7.1-.1.28-.1.37-.2.09-.09.09-.28.17-.36.13-.13.49,0,.67-.21.09-.1.08-.25.17-.34.38-.37,2.57-1.87,3.09-2.06.45-.17.85-.01,1.24-.09.22-.04.28-.26.48-.29.52-.06.85.48,1.27.52.28.03.76-.32,1.13.08.04.05,0,.18.05.23.03.03.49.24.6.41.06.09-.05.21-.02.26.01.02.15.01.16.08.09.4.16,1.5.13,1.92-.05.6-.34,1.16-.4,1.69-.06.5,0,.8-.18,1.33-.08.24-.33.57-.44.8-.06.13-.04.66-.1.85-.08.27-.32.42-.33.45-.04.17.05.4-.09.56l-.49.13s.11.85.1.99c0,.07-.18.05-.19.12-.05.22-.11.98-.15,1.08-.13.4-.45.53-.63,1.28-.03.12-.55.9-.55.97,0,.1.09.22.05.32-.06.17-.32.1-.38.18-.23.33-.04.92-.43.96l.29.09v.19s-.17.02-.17.02c.17.47-.29.36-.4.52-.14.22.04.55-.02.67-.01.02-.34.34-.36.35-.11.06-.28-.08-.38.09l.19.09c-.29.19-.07.41-.13.72-.08.43-.51,1.21-.72,1.64-.03.07-.24.11-.29.31-.05.23.22.05.19.23-.22-.02-.62.08-.72.29-.05.1.04.24,0,.37-.08.26-.38.35-.41.4-.02.04.09.2.09.31,0,.06-.14.06-.18.14-.14.26-.36.69-.43.96-.04.16.07.4,0,.48-.06.07-.59.29-.63.35-.08.14-.04.74-.1.79h-.38v.86l.29.05c-.23.28-.38.79-.61,1.05-.24.27-.66.36-.77.72-.07.22.06.34.03.49-.02.1-.17.22-.22.35-.03.09.04.23,0,.29-.08.13-.29.12-.37.18-.09.07-.03.22-.08.27-.05.06-.37.02-.43.38-.06.32.28.19-.3.45l.28.09c-.34.15-.3.33-.43.61-.12.24-.44.24,0,.58.22-.33.7-.28.96-.57.12-.13.11-.29.17-.36.09-.09.55-.17.62-.23.15-.14-.17-.03.42-.3.56-.26.39-.49.64-.76.65-.69,2.21-.93,2.76-1.65.09-.11.06-.32.13-.4.1-.12.65-.09.66-.59l.35.08c.09-.36.78-.33.49-.75.38.09.24-.19.38-.33.14-.14,1.09-.56,1.29-.71.19-.14.48-.71.54-.74.25-.14.67.11.65-.59l.27.08c.05-.12.24-.36.33-.43.47-.34,1.43-.85,1.84-1.17.09-.07.11-.24.15-.28.04-.03.32.1.54-.07.11-.09.15-.27.24-.33.32-.23.21-.06.57-.43.48-.52.49-.24.83-.37.17-.07.22-.33.31-.39.12-.09.63-.21.86-.34.37-.2.75-.6,1.18-.82.27-.14.68-.16.91-.39.13-.13.13-.33.18-.37.57-.39,1.48-.75,2.15-1.13.88-.5,1.65-1.05,2.57-1.43.62-.26,1.19-.85,1.74-1.21.41-.27.76-.32,1.14-.48.19-.08.25-.38.3-.41.03-.02.16.07.26.02.84-.4,1.59-.92,2.41-1.29.78-.35,1.64-.83,2.31-1.33,1-.73,2.96-1.47,4.14-2.05.24-.12.44-.5.86-.42l-.1-.28c.15,0,.3-.04.43-.09.88-.35,1.28-.56,2.02-1.05.65-.42,1.72-.68,2.34-1.05.64-.38,1.63-1.12,2.35-1.38.13-.05,1.84-.35,1.94-.34.49.05.41.42.56.55.09.08.39.06.5.21-.03-.34.47-.4.76-.39.28,0,.56.7.68.86.08.12.35.21.4.46.05.27-.4.77-.08,1.16l-.67.1Z"/><path class="cls-1" d="M61.12,24.47l-.29-.09-.19.19c-.02.38.24.35.48.52l-.38.05v.46c.12.18.99.08.86-.08-.03-.03-.23.08-.19-.1.51.06.64-.02.82-.48,1.05.31-.04,1.18-.59,1.33.05.65-.23.39-.43.62-.06.07.02.21,0,.23-.09.07-.72.27-.74.3.32.31,0,.3,0,.52l.19.14-.43-.19c-.05.23-.26.16-.31.21-.04.04-.1.56-.09.6.05.16.28.07.25.23-.27.19-.6,0-.8.03-.16.02-.39.31-.55.39-.29.16-.67,0-.56.44h.22c.3.11-.13.23-.16.29-.35.54-.59,1.34-1.36,1.49-.08.02-.19-.06-.26-.06-.06,0-.49.41-.06.42-.4.15-.7.34-.67.81l-.38-.19.08.23c-.28.09-.3.44-.38.51-.03.03-.77.26-.8.29-.08.07-.11.19-.14.29l-.28-.09c-.07.33.1.6-.38.57l.19.28c-.15-.03-.75.22-.83.31-.07.08-.66.79-.71.82-.08.04-.32-.21-.37.19l-.28-.09.1.38c-.32.01-.63.42-.89.64-.15.13-.34.02-.35.51l-.19-.09c.09.37-.2.27-.32.39-.16.16-.27.37-.48.48-.14.07-.43,0-.57.27-.06.12.18.26-.15.33.31.16.69.51.98.64,1.78.79,3.21,1.58,4.85,2.68.54.36,1.12.69,1.64,1,.15.09.51.53.55.56.14.08.38-.02.45.03.03.03-.04.19.07.28.07.06.32.1.45.2.46.36,1.08.72,1.44,1.03.18.15.28.45.43.52.57.29.2.12.49.41.1.1.77.29,1,.47.26.2.33.51.51.64.25.18,1.03.51,1.23.68.06.05.26.52.4.59.05.02.16-.09.32.01.18.12.61.67.88.87,2.2,1.65,4.68,3.5,6.98,4.8.37.21.73.12.75.15.02.02-.03.17.03.25.28.39.55.31.83.47.44.25.34.24.94.48.48.19.77.75,1.25.51v.29c.32-.25.46.04.65.07.14.03.27-.04.35-.03.23.05.99.23,1.15.33.15.09.28.32.39.46.21.27.38.56.57.85.08.13.24.07.22.21l-.19.05c.06.18.13.37.11.57-.01.17-.17.12-.19.21-.17.58-.08.72-.66,1.14v.92s-.57.07-.57.07l-.11,1.23h-1.14s0,.37,0,.37c-.68.06-1.75.51-2.39.27-.64-.24-.97-.65-1.47-1.03-1.07-.8-2.16-1.43-3.38-2-.03-.02-.6-.37-.62-.4-.05-.05,0-.21-.03-.24-.06-.05-.24.02-.34-.04-.79-.45-1.53-1.21-2.35-1.7-.14-.08-.36-.06-.41-.11-.05-.05-.03-.26-.15-.37-.11-.1-.41-.12-.61-.24-1.44-.94-2.91-2.33-4.26-3.46-.35-.29-1.08-.52-1.09-1.05-.09.01-.18.12-.26.08-.18-.07-.89-.86-1.17-1.07-.31-.23-.77-.55-1.13-.63l.09-.18c-.41.05-.46-.34-.67-.52-.25-.22-.75-.47-.96-.63-2.38-1.82-4.65-3.51-7.39-4.63-.12-.05-.11-.21-.18-.22-.15-.02-.33.09-.48.04-.14-.05-.14-.23-.21-.27-1.27-.71-2.8-.23-4.13-.56-.57-.14-1.42-.68-2.03-.89-.07-.02-.2.07-.32.02-.28-.11-.25-.48-.38-.67-.13-.18-.41-.33-.51-.52-.02-.04-.23-.77-.22-.81.01-.09.17-.15.2-.24.03-.09-.03-.2.01-.28.12-.23.5-.27.68-.41.53-.43.63-1.13,1-1.66.62.17,1.1-.37,1.48-.47.42-.11,1.21-.13,1.58-.49.56-.55,1.17-1.04,1.82-1.53.91-.69,2.26-1.53,2.97-2.41.07-.09.05-.27.18-.34l.09.19c.16-.09.17-.36.26-.45.11-.11.61-.18.64-.22.02-.02-.15-.24.1-.5.25-.25.99-.62,1.24-.88.09-.09.07-.24.12-.3.19-.2.71-.29,1.17-.78.18-.19.47-.22.42-.58l.28.1.02-.26c.68.07.57-.53.74-.65.05-.03.21.05.32.02.59-.16.3-.22.41-.45.17-.35.47-.18.5-.2.02-.02.06-.18.17-.26.31-.24.53-.34.67-.78l.42.06c.25-.47.28-.32.76-.25l-.09-.47c.61.23.58-.12.86-.24.06-.03.67-.04.74-.08.03-.02.24-.34.38-.42.16-.09.47-.12.48-.14.06-.06.12-.85.68-.75l-.07-.17c.34-.07.19-.39.41-.59l.39.18.28-.28.14.47Z"/></g></svg>